<svg width="48" height="48" viewBox="0 0 48 48" fill="none" xmlns="http://www.w3.org/2000/svg">
<g clip-path="url(#clip0_24_95)">
<rect width="48" height="48" rx="24" fill="#CC0000"/>
<path d="M24 0C26.2031 0 28.3281 0.28125 30.375 0.84375C32.4219 1.40625 34.3281 2.21875 36.0938 3.28125C37.8594 4.34375 39.4766 5.59375 40.9453 7.03125C42.4141 8.46875 43.6719 10.0859 44.7188 11.8828C45.7656 13.6797 46.5703 15.5938 47.1328 17.625C47.6953 19.6562 47.9844 21.7812 48 24C48 26.2031 47.7188 28.3281 47.1562 30.375C46.5938 32.4219 45.7812 34.3281 44.7188 36.0938C43.6562 37.8594 42.4062 39.4766 40.9688 40.9453C39.5312 42.4141 37.9141 43.6719 36.1172 44.7188C34.3203 45.7656 32.4062 46.5703 30.375 47.1328C28.3438 47.6953 26.2188 47.9844 24 48C21.7969 48 19.6719 47.7188 17.625 47.1562C15.5781 46.5938 13.6719 45.7812 11.9062 44.7188C10.1406 43.6562 8.52344 42.4062 7.05469 40.9688C5.58594 39.5312 4.32812 37.9141 3.28125 36.1172C2.23438 34.3203 1.42969 32.4062 0.867188 30.375C0.304688 28.3438 0.015625 26.2188 0 24C0 21.7969 0.28125 19.6719 0.84375 17.625C1.40625 15.5781 2.21875 13.6719 3.28125 11.9062C4.34375 10.1406 5.59375 8.52344 7.03125 7.05469C8.46875 5.58594 10.0859 4.32812 11.8828 3.28125C13.6797 2.23438 15.5938 1.42969 17.625 0.867188C19.6562 0.304688 21.7812 0.015625 24 0ZM24 45C25.9219 45 27.7734 44.75 29.5547 44.25C31.3359 43.75 33.0078 43.0469 34.5703 42.1406C36.1328 41.2344 37.5547 40.1328 38.8359 38.8359C40.1172 37.5391 41.2109 36.125 42.1172 34.5938C43.0234 33.0625 43.7344 31.3906 44.25 29.5781C44.7656 27.7656 45.0156 25.9062 45 24C45 22.0781 44.75 20.2266 44.25 18.4453C43.75 16.6641 43.0469 14.9922 42.1406 13.4297C41.2344 11.8672 40.1328 10.4453 38.8359 9.16406C37.5391 7.88281 36.125 6.78906 34.5938 5.88281C33.0625 4.97656 31.3906 4.26562 29.5781 3.75C27.7656 3.23438 25.9062 2.98438 24 3C22.0781 3 20.2266 3.25 18.4453 3.75C16.6641 4.25 14.9922 4.95312 13.4297 5.85938C11.8672 6.76562 10.4453 7.86719 9.16406 9.16406C7.88281 10.4609 6.78906 11.875 5.88281 13.4062C4.97656 14.9375 4.26562 16.6094 3.75 18.4219C3.23438 20.2344 2.98438 22.0938 3 24C3 25.9219 3.25 27.7734 3.75 29.5547C4.25 31.3359 4.95312 33.0078 5.85938 34.5703C6.76562 36.1328 7.86719 37.5547 9.16406 38.8359C10.4609 40.1172 11.875 41.2109 13.4062 42.1172C14.9375 43.0234 16.6094 43.7344 18.4219 44.25C20.2344 44.7656 22.0938 45.0156 24 45Z" fill="black"/>
</g>
<defs>
<clipPath id="clip0_24_95">
<rect width="48" height="48" rx="24" fill="white"/>
</clipPath>
</defs>
</svg>
